<svg version="1.1" xmlns="http://www.w3.org/2000/svg" xmlns:xlink="http://www.w3.org/1999/xlink" width="239.16064" height="87.33333" viewBox="0,0,239.16064,87.33333"><g transform="translate(-120.41968,-136.33336)"><g data-paper-data="{&quot;isPaintingLayer&quot;:true}" stroke="none" stroke-linejoin="miter" stroke-miterlimit="10" stroke-dasharray="" stroke-dashoffset="0" style="mix-blend-mode: normal"><path d="M120.41968,215.54169c0,-18.03075 0,-60.59869 0,-70.75c0,-4.24784 3.4012,-8.45833 7.78865,-8.45833c21.10389,0 185.16201,0 223.41667,0c5.09224,0 7.95532,4.16333 7.95532,8.375c0,10.06108 0,52.26007 0,70.5c0,3.77611 -3.44138,8.45833 -7.87198,8.45833c-21.2242,0 -185.57749,0 -223.5,0c-4.98797,0 -7.78865,-3.11548 -7.78865,-8.125z" fill-opacity="0.50196" fill="#6e4f41" fill-rule="nonzero" stroke-width="0" stroke-linecap="butt"/><path d="M133.46198,186.7969v-18.6877h6.34491c1.98216,0 3.63586,0.417 4.96111,1.25099c1.32525,0.83114 2.32061,1.9536 2.98609,3.36738c0.66548,1.41379 0.99822,2.98038 0.99822,4.69977c0,1.89362 -0.36416,3.54304 -1.09247,4.94826c-0.72546,1.40236 -1.76081,2.49055 -3.10605,3.26456c-1.34238,0.77116 -2.92468,1.15674 -4.7469,1.15674zM146.9101,177.42735c0,-1.49376 -0.27704,-2.81901 -0.83114,-3.97574c-0.55123,-1.15959 -1.35381,-2.06784 -2.40772,-2.72475c-1.05106,-0.65691 -2.33918,-0.98537 -3.86435,-0.98537h-4.5027v15.42313h4.5027c1.54231,0 2.839,-0.34131 3.89006,-1.02392c1.05391,-0.68547 1.8522,-1.61086 2.39487,-2.77616c0.54552,-1.16816 0.81828,-2.48055 0.81828,-3.93718zM157.83463,187.05824c-0.98251,0 -1.89505,-0.1885 -2.73761,-0.56551c-0.84256,-0.37701 -1.57087,-0.89397 -2.18494,-1.55088c-0.61407,-0.65977 -1.09247,-1.4195 -1.43521,-2.2792c-0.33988,-0.8597 -0.50982,-1.7808 -0.50982,-2.76331c0,-1.27955 0.29275,-2.45485 0.87826,-3.5259c0.58836,-1.07105 1.39951,-1.92646 2.43343,-2.56624c1.03678,-0.63977 2.2135,-0.95966 3.53018,-0.95966c1.35095,0 2.53054,0.32417 3.53875,0.97251c1.01107,0.64834 1.80508,1.50376 2.38202,2.56624c0.5798,1.06248 0.86969,2.22493 0.86969,3.48734c0,0.13995 0,0.27562 0,0.407c0,0.13138 -0.00857,0.23278 -0.02571,0.30418h-11.73872c0.08854,0.98251 0.36416,1.85649 0.82685,2.62193c0.46555,0.76259 1.07105,1.36809 1.8165,1.8165c0.74545,0.44556 1.55802,0.66834 2.43771,0.66834c0.89397,0 1.73939,-0.22849 2.53625,-0.68547c0.79972,-0.45698 1.35809,-1.05391 1.67512,-1.7908l1.55088,0.42414c-0.2799,0.64834 -0.70975,1.23671 -1.28955,1.76509c-0.5798,0.52553 -1.25956,0.93253 -2.03928,1.221c-0.77973,0.28847 -1.618,0.4327 -2.51483,0.4327zM152.78356,179.29526h10.13214c-0.0714,-0.99965 -0.33988,-1.87648 -0.80543,-2.6305c-0.46269,-0.75688 -1.06677,-1.34952 -1.81222,-1.77794c-0.74545,-0.43128 -1.56659,-0.64691 -2.46342,-0.64691c-0.89397,0 -1.7094,0.21564 -2.44628,0.64691c-0.73688,0.42842 -1.3381,1.02535 -1.80365,1.7908c-0.46555,0.76259 -0.7326,1.63514 -0.80115,2.61765zM167.86251,174.50552h-1.89362v-1.42236h1.89362v-0.36844c0,-0.64834 0.09711,-1.28812 0.29133,-1.91932c0.19422,-0.63406 0.4884,-1.21386 0.88255,-1.73939c0.39415,-0.52553 0.89397,-0.94681 1.49947,-1.26384c0.6055,-0.31703 1.32953,-0.47555 2.17209,-0.47555c0.64834,0 1.231,0.0714 1.74796,0.21421c0.51982,0.13995 0.97251,0.30703 1.35809,0.50125c0.38558,0.19136 0.67548,0.36559 0.86969,0.52267l-0.81828,1.28955c-0.2799,-0.26276 -0.6969,-0.48554 -1.25099,-0.66834c-0.55123,-0.18565 -1.15245,-0.27847 -1.80365,-0.27847c-0.73688,0 -1.3381,0.1885 -1.80365,0.56551c-0.46269,0.37701 -0.804,0.85541 -1.02392,1.43521c-0.21992,0.5798 -0.32988,1.16816 -0.32988,1.76509v0.41985h6.87186v13.71374h-1.7908v-12.29138h-5.08107v12.29138h-1.7908zM192.00217,186.7969h-1.7908v-7.66016c0,-1.61372 -0.23706,-2.7933 -0.71118,-3.53875c-0.47412,-0.74545 -1.21957,-1.11818 -2.23635,-1.11818c-0.70261,0 -1.39665,0.17137 -2.08212,0.5141c-0.68262,0.33988 -1.28383,0.804 -1.80365,1.39237c-0.51696,0.58836 -0.88826,1.25956 -1.11389,2.01358v8.39704h-1.7908v-13.71374h1.63228v3.10605c0.36844,-0.66834 0.85113,-1.25242 1.44806,-1.75224c0.59693,-0.49982 1.27241,-0.88969 2.02643,-1.16959c0.75402,-0.2799 1.53517,-0.41985 2.34346,-0.41985c0.75402,0 1.39379,0.13995 1.91932,0.41985c0.52553,0.2799 0.94681,0.67976 1.26384,1.19958c0.31703,0.51696 0.54552,1.1396 0.68547,1.86791c0.13995,0.72831 0.20993,1.53946 0.20993,2.43343zM195.81919,186.7969v-13.71374h1.7908v13.71374zM195.81919,170.21275v-2.6305h1.7908v2.6305zM208.13795,186.13713c-0.13995,0.05427 -0.35987,0.15138 -0.65977,0.29133c-0.29704,0.13995 -0.65691,0.26276 -1.07962,0.36844c-0.41985,0.10568 -0.87541,0.15852 -1.36666,0.15852c-0.50839,0 -0.9868,-0.09568 -1.43521,-0.28704c-0.44841,-0.19422 -0.804,-0.4884 -1.06677,-0.88255c-0.26276,-0.397 -0.39415,-0.8854 -0.39415,-1.4652v-9.81511h-1.89362v-1.42236h1.89362v-4.63122h1.7908v4.63122h3.15746v1.42236h-3.15746v9.31814c0.03427,0.49125 0.21278,0.8597 0.53553,1.10532c0.3256,0.24563 0.69975,0.36844 1.12246,0.36844c0.49125,0 0.93824,-0.08283 1.34096,-0.24848c0.40272,-0.16851 0.64834,-0.28847 0.73688,-0.35987zM216.05921,187.05824c-0.98251,0 -1.89505,-0.1885 -2.73761,-0.56551c-0.84256,-0.37701 -1.57087,-0.89397 -2.18494,-1.55088c-0.61407,-0.65977 -1.09247,-1.4195 -1.43521,-2.2792c-0.33988,-0.8597 -0.50982,-1.7808 -0.50982,-2.76331c0,-1.27955 0.29275,-2.45485 0.87826,-3.5259c0.58836,-1.07105 1.39951,-1.92646 2.43343,-2.56624c1.03678,-0.63977 2.2135,-0.95966 3.53018,-0.95966c1.35095,0 2.53054,0.32417 3.53875,0.97251c1.01107,0.64834 1.80508,1.50376 2.38202,2.56624c0.5798,1.06248 0.86969,2.22493 0.86969,3.48734c0,0.13995 0,0.27562 0,0.407c0,0.13138 -0.00857,0.23278 -0.02571,0.30418h-11.73872c0.08854,0.98251 0.36416,1.85649 0.82685,2.62193c0.46555,0.76259 1.07105,1.36809 1.8165,1.8165c0.74545,0.44556 1.55802,0.66834 2.43771,0.66834c0.89397,0 1.73939,-0.22849 2.53625,-0.68547c0.79972,-0.45698 1.35809,-1.05391 1.67512,-1.7908l1.55088,0.42414c-0.2799,0.64834 -0.70975,1.23671 -1.28955,1.76509c-0.5798,0.52553 -1.25956,0.93253 -2.03928,1.221c-0.77973,0.28847 -1.618,0.4327 -2.51483,0.4327zM211.00813,179.29526h10.13214c-0.0714,-0.99965 -0.33988,-1.87648 -0.80543,-2.6305c-0.46269,-0.75688 -1.06677,-1.34952 -1.81222,-1.77794c-0.74545,-0.43128 -1.56659,-0.64691 -2.46342,-0.64691c-0.89397,0 -1.7094,0.21564 -2.44628,0.64691c-0.73688,0.42842 -1.3381,1.02535 -1.80365,1.7908c-0.46555,0.76259 -0.7326,1.63514 -0.80115,2.61765zM225.66665,167.58224h1.7908v16.10861c0,0.68547 0.12281,1.13389 0.36844,1.34524c0.24563,0.2085 0.54409,0.31275 0.8954,0.31275c0.31703,0 0.63263,-0.03427 0.94681,-0.10282c0.31703,-0.0714 0.58979,-0.14281 0.81828,-0.21421l0.31275,1.44806c-0.33131,0.13995 -0.73831,0.2542 -1.221,0.34274c-0.48269,0.08854 -0.89968,0.13281 -1.25099,0.13281c-0.80829,0 -1.45377,-0.23706 -1.93646,-0.71118c-0.48269,-0.47412 -0.72403,-1.12389 -0.72403,-1.94931zM233.08997,191.00827c0.24563,0.01714 0.48269,0.02999 0.71118,0.03856c0.22849,0.00857 0.39558,-0.00428 0.50125,-0.03856c0.2085,-0.03427 0.40986,-0.15709 0.60407,-0.36844c0.19422,-0.21135 0.42271,-0.6155 0.68547,-1.21243c0.26276,-0.59408 0.63121,-1.47091 1.10532,-2.6305l-5.97646,-13.71374h1.8979l5.02537,11.87153l4.63122,-11.87153h1.7908l-7.10749,17.68948c-0.12281,0.33131 -0.30703,0.6412 -0.55266,0.92967c-0.24563,0.29133 -0.54838,0.51982 -0.90825,0.68547c-0.35987,0.16851 -0.80257,0.26134 -1.3281,0.27847c-0.15709,0.01714 -0.31989,0.02142 -0.4884,0.01285c-0.16566,-0.00857 -0.36273,-0.02999 -0.59122,-0.06426zM263.86289,171.6094c-0.26562,-0.29989 -0.57408,-0.56694 -0.92539,-0.80115c-0.34845,-0.23706 -0.7426,-0.4427 -1.18244,-0.61693c-0.43984,-0.17708 -0.90968,-0.31846 -1.4095,-0.42414c-0.49982,-0.10568 -1.02964,-0.15852 -1.58944,-0.15852c-1.63371,0 -2.83186,0.31132 -3.59445,0.93396c-0.76259,0.62264 -1.14388,1.46948 -1.14388,2.54053c0,0.73688 0.17994,1.31668 0.53981,1.73939c0.35987,0.41985 0.92539,0.76116 1.69654,1.02392c0.77116,0.26276 1.75367,0.53553 2.94753,0.81828c1.33382,0.2799 2.48341,0.61264 3.44878,0.99822c0.96537,0.38558 1.71083,0.90825 2.23635,1.56802c0.52839,0.65691 0.79258,1.5466 0.79258,2.66906c0,0.8597 -0.16708,1.60658 -0.50125,2.24064c-0.33417,0.63121 -0.79972,1.15816 -1.39665,1.58087c-0.59693,0.41985 -1.30811,0.73117 -2.13353,0.93396c-0.82257,0.19993 -1.72511,0.29989 -2.70762,0.29989c-0.96537,0 -1.89219,-0.09997 -2.78045,-0.29989c-0.8854,-0.20279 -1.72368,-0.50125 -2.51483,-0.8954c-0.78829,-0.397 -1.52375,-0.90254 -2.20637,-1.51661l0.9211,-1.49947c0.33131,0.3513 0.72974,0.68119 1.19529,0.98965c0.46555,0.30561 0.98251,0.58122 1.55088,0.82685c0.57123,0.24563 1.1853,0.43413 1.84221,0.56551c0.65977,0.13138 1.34096,0.19707 2.04357,0.19707c1.4909,0 2.65335,-0.27133 3.48734,-0.814c0.83399,-0.54552 1.25099,-1.35381 1.25099,-2.42486c0,-0.77116 -0.21135,-1.38951 -0.63406,-1.85506c-0.41985,-0.46555 -1.05106,-0.84684 -1.89362,-1.14388c-0.84256,-0.29989 -1.87791,-0.58979 -3.10605,-0.86969c-1.29954,-0.29704 -2.3963,-0.62978 -3.29027,-0.99822c-0.89397,-0.36844 -1.56516,-0.85541 -2.01358,-1.46091c-0.44841,-0.6055 -0.67262,-1.4095 -0.67262,-2.41201c0,-1.15674 0.28561,-2.13353 0.85684,-2.9304c0.57123,-0.79972 1.35666,-1.40522 2.35631,-1.8165c0.99965,-0.41414 2.14924,-0.62121 3.44878,-0.62121c0.82542,0 1.5923,0.08426 2.30062,0.25277c0.71118,0.16566 1.36952,0.407 1.97502,0.72403c0.6055,0.31418 1.17102,0.70832 1.69654,1.18244zM274.49374,187.05824c-0.99965,0 -1.91647,-0.1885 -2.75046,-0.56551c-0.83399,-0.37701 -1.56231,-0.89825 -2.18494,-1.56373c-0.62264,-0.66834 -1.10532,-1.43235 -1.44806,-2.29205c-0.33988,-0.8597 -0.50982,-1.77223 -0.50982,-2.73761c0,-1.29669 0.28847,-2.48055 0.86541,-3.55161c0.5798,-1.07105 1.38665,-1.92218 2.42058,-2.55339c1.03678,-0.63121 2.23064,-0.94681 3.58159,-0.94681c1.28241,0 2.41486,0.29418 3.39737,0.88255c0.98251,0.58551 1.71083,1.37951 2.18494,2.38202l-1.73939,0.55266c-0.38558,-0.70261 -0.92539,-1.25099 -1.61943,-1.64513c-0.69119,-0.397 -1.45806,-0.5955 -2.30062,-0.5955c-0.91396,0 -1.74796,0.23706 -2.50198,0.71118c-0.75402,0.47412 -1.35524,1.12389 -1.80365,1.94931c-0.44556,0.82542 -0.66834,1.76366 -0.66834,2.81472c0,1.03678 0.22706,1.97645 0.68119,2.81901c0.45698,0.84256 1.06248,1.51375 1.8165,2.01358c0.75402,0.49982 1.58801,0.74974 2.50198,0.74974c0.59693,0 1.17102,-0.10568 1.72225,-0.31703c0.55409,-0.21135 1.03678,-0.49697 1.44806,-0.85684c0.41414,-0.35987 0.69119,-0.74974 0.83114,-1.16959l1.76081,0.52696c-0.24563,0.64834 -0.65405,1.23242 -1.22528,1.75224c-0.56837,0.51696 -1.23385,0.91968 -1.99644,1.20815c-0.76259,0.28847 -1.58373,0.4327 -2.46342,0.4327zM282.99812,186.7969v-13.71374h1.7908v13.71374zM282.99812,170.21275v-2.6305h1.7908v2.6305zM294.65711,187.05824c-0.98251,0 -1.89505,-0.1885 -2.73761,-0.56551c-0.84256,-0.37701 -1.57087,-0.89397 -2.18494,-1.55088c-0.61407,-0.65977 -1.09247,-1.4195 -1.43521,-2.2792c-0.33988,-0.8597 -0.50982,-1.7808 -0.50982,-2.76331c0,-1.27955 0.29275,-2.45485 0.87826,-3.5259c0.58836,-1.07105 1.39951,-1.92646 2.43343,-2.56624c1.03678,-0.63977 2.2135,-0.95966 3.53018,-0.95966c1.35095,0 2.53054,0.32417 3.53875,0.97251c1.01107,0.64834 1.80508,1.50376 2.38202,2.56624c0.5798,1.06248 0.86969,2.22493 0.86969,3.48734c0,0.13995 0,0.27562 0,0.407c0,0.13138 -0.00857,0.23278 -0.02571,0.30418h-11.73872c0.08854,0.98251 0.36416,1.85649 0.82685,2.62193c0.46555,0.76259 1.07105,1.36809 1.8165,1.8165c0.74545,0.44556 1.55802,0.66834 2.43771,0.66834c0.89397,0 1.73939,-0.22849 2.53625,-0.68547c0.79972,-0.45698 1.35809,-1.05391 1.67512,-1.7908l1.55088,0.42414c-0.2799,0.64834 -0.70975,1.23671 -1.28955,1.76509c-0.5798,0.52553 -1.25956,0.93253 -2.03928,1.221c-0.77973,0.28847 -1.618,0.4327 -2.51483,0.4327zM289.60604,179.29526h10.13214c-0.0714,-0.99965 -0.33988,-1.87648 -0.80543,-2.6305c-0.46269,-0.75688 -1.06677,-1.34952 -1.81222,-1.77794c-0.74545,-0.43128 -1.56659,-0.64691 -2.46342,-0.64691c-0.89397,0 -1.7094,0.21564 -2.44628,0.64691c-0.73688,0.42842 -1.3381,1.02535 -1.80365,1.7908c-0.46555,0.76259 -0.7326,1.63514 -0.80115,2.61765zM315.71624,186.7969h-1.7908v-7.66016c0,-1.61372 -0.23706,-2.7933 -0.71118,-3.53875c-0.47412,-0.74545 -1.21957,-1.11818 -2.23635,-1.11818c-0.70261,0 -1.39665,0.17137 -2.08212,0.5141c-0.68262,0.33988 -1.28383,0.804 -1.80365,1.39237c-0.51696,0.58836 -0.88826,1.25956 -1.11389,2.01358v8.39704h-1.7908v-13.71374h1.63228v3.10605c0.36844,-0.66834 0.85113,-1.25242 1.44806,-1.75224c0.59693,-0.49982 1.27241,-0.88969 2.02643,-1.16959c0.75402,-0.2799 1.53517,-0.41985 2.34346,-0.41985c0.75402,0 1.39379,0.13995 1.91932,0.41985c0.52553,0.2799 0.94681,0.67976 1.26384,1.19958c0.31703,0.51696 0.54552,1.1396 0.68547,1.86791c0.13995,0.72831 0.20993,1.53946 0.20993,2.43343zM325.47972,187.05824c-0.99965,0 -1.91647,-0.1885 -2.75046,-0.56551c-0.83399,-0.37701 -1.56231,-0.89825 -2.18494,-1.56373c-0.62264,-0.66834 -1.10532,-1.43235 -1.44806,-2.29205c-0.33988,-0.8597 -0.50982,-1.77223 -0.50982,-2.73761c0,-1.29669 0.28847,-2.48055 0.86541,-3.55161c0.5798,-1.07105 1.38665,-1.92218 2.42058,-2.55339c1.03678,-0.63121 2.23064,-0.94681 3.58159,-0.94681c1.28241,0 2.41486,0.29418 3.39737,0.88255c0.98251,0.58551 1.71083,1.37951 2.18494,2.38202l-1.73939,0.55266c-0.38558,-0.70261 -0.92539,-1.25099 -1.61943,-1.64513c-0.69119,-0.397 -1.45806,-0.5955 -2.30062,-0.5955c-0.91396,0 -1.74796,0.23706 -2.50198,0.71118c-0.75402,0.47412 -1.35524,1.12389 -1.80365,1.94931c-0.44556,0.82542 -0.66834,1.76366 -0.66834,2.81472c0,1.03678 0.22706,1.97645 0.68119,2.81901c0.45698,0.84256 1.06248,1.51375 1.8165,2.01358c0.75402,0.49982 1.58801,0.74974 2.50198,0.74974c0.59693,0 1.17102,-0.10568 1.72225,-0.31703c0.55409,-0.21135 1.03678,-0.49697 1.44806,-0.85684c0.41414,-0.35987 0.69119,-0.74974 0.83114,-1.16959l1.76081,0.52696c-0.24563,0.64834 -0.65405,1.23242 -1.22528,1.75224c-0.56837,0.51696 -1.23385,0.91968 -1.99644,1.20815c-0.76259,0.28847 -1.58373,0.4327 -2.46342,0.4327zM339.77326,187.05824c-0.98251,0 -1.89505,-0.1885 -2.73761,-0.56551c-0.84256,-0.37701 -1.57087,-0.89397 -2.18494,-1.55088c-0.61407,-0.65977 -1.09247,-1.4195 -1.43521,-2.2792c-0.33988,-0.8597 -0.50982,-1.7808 -0.50982,-2.76331c0,-1.27955 0.29275,-2.45485 0.87826,-3.5259c0.58836,-1.07105 1.39951,-1.92646 2.43343,-2.56624c1.03678,-0.63977 2.2135,-0.95966 3.53018,-0.95966c1.35095,0 2.53054,0.32417 3.53875,0.97251c1.01107,0.64834 1.80508,1.50376 2.38202,2.56624c0.5798,1.06248 0.86969,2.22493 0.86969,3.48734c0,0.13995 0,0.27562 0,0.407c0,0.13138 -0.00857,0.23278 -0.02571,0.30418h-11.73872c0.08854,0.98251 0.36416,1.85649 0.82685,2.62193c0.46555,0.76259 1.07105,1.36809 1.8165,1.8165c0.74545,0.44556 1.55802,0.66834 2.43771,0.66834c0.89397,0 1.73939,-0.22849 2.53625,-0.68547c0.79972,-0.45698 1.35809,-1.05391 1.67512,-1.7908l1.55088,0.42414c-0.2799,0.64834 -0.70975,1.23671 -1.28955,1.76509c-0.5798,0.52553 -1.25956,0.93253 -2.03928,1.221c-0.77973,0.28847 -1.618,0.4327 -2.51483,0.4327zM334.72219,179.29526h10.13214c-0.0714,-0.99965 -0.33988,-1.87648 -0.80543,-2.6305c-0.46269,-0.75688 -1.06677,-1.34952 -1.81222,-1.77794c-0.74545,-0.43128 -1.56659,-0.64691 -2.46342,-0.64691c-0.89397,0 -1.7094,0.21564 -2.44628,0.64691c-0.73688,0.42842 -1.3381,1.02535 -1.80365,1.7908c-0.46555,0.76259 -0.7326,1.63514 -0.80115,2.61765z" fill-opacity="0.50196" fill="#000000" fill-rule="nonzero" stroke-width="1" stroke-linecap="square"/><path d="M223.58993,169.05996c0,-9.06303 7.34704,-16.41008 16.41007,-16.41008c9.06303,0 16.41007,7.34705 16.41007,16.41008h2.73501c3.02101,0 5.47003,2.44901 5.47003,5.47002v27.35011c0,3.02101 -2.44902,5.47003 -5.47003,5.47003h-38.29016c-3.02101,0 -5.47002,-2.44902 -5.47002,-5.47003v-27.35011c0,-3.02101 2.44902,-5.47002 5.47002,-5.47002zM240,158.11991c6.04202,0 10.94004,4.89802 10.94004,10.94004h-21.88009c0,-6.04202 4.89802,-10.94004 10.94004,-10.94004zM245.47003,185.47003c-0.00005,1.9542 -1.04263,3.75994 -2.73502,4.73704v3.46799c0,1.5105 -1.2245,2.73502 -2.73501,2.73502c-1.5105,0 -2.73501,-1.22451 -2.73501,-2.73502v-3.46799c-2.14392,-1.23794 -3.18915,-3.76149 -2.54839,-6.15281c0.64076,-2.39131 2.80773,-4.05415 5.2834,-4.05426c3.02101,0 5.47002,2.44902 5.47002,5.47002z" fill="#ffe44d" fill-rule="evenodd" stroke-width="1" stroke-linecap="butt"/></g></g></svg>