<svg version="1.1" xmlns="http://www.w3.org/2000/svg" xmlns:xlink="http://www.w3.org/1999/xlink" width="87.27773" height="31.87086" viewBox="0,0,87.27773,31.87086"><g transform="translate(1.72745,-20.06457)"><g data-paper-data="{&quot;isPaintingLayer&quot;:true}" stroke-linecap="butt" stroke-linejoin="miter" stroke-miterlimit="10" stroke-dasharray="" stroke-dashoffset="0" style="mix-blend-mode: normal"><path d="M-1.72745,48.97035c0,-6.58002 0,-22.11449 0,-25.81905c0,-1.55018 1.24121,-3.08673 2.84234,-3.08673c7.70152,0 67.57182,0 81.53222,0c1.85832,0 2.90317,1.51934 2.90317,3.05632c0,3.67163 0,19.07144 0,25.72781c0,1.37803 -1.25588,3.08673 -2.87275,3.08673c-7.74542,0 -67.72344,0 -81.56264,0c-1.82028,0 -2.84234,-1.13694 -2.84234,-2.96508z" fill="#1b1b1b" fill-rule="nonzero" stroke="none" stroke-width="0"/><text transform="translate(38.04599,39.95725) scale(0.29644,0.29644)" font-size="40" xml:space="preserve" fill="#ffffff" fill-rule="nonzero" stroke="none" stroke-width="1" stroke-linecap="butt" stroke-linejoin="miter" stroke-miterlimit="10" stroke-dasharray="" stroke-dashoffset="0" font-family="&quot;Raleway&quot;, Sans Serif" font-weight="normal" text-anchor="start" style="mix-blend-mode: normal"><tspan x="0" dy="0">Zurück</tspan></text><path d="M30.25906,35.58791c0,0.47322 -0.38363,0.85685 -0.85685,0.85685h-20.20962l5.39301,5.39129c0.33504,0.33504 0.33504,0.87825 0,1.21329c-0.33504,0.33504 -0.87825,0.33504 -1.21329,0l-6.85479,-6.85479c-0.16115,-0.16075 -0.25174,-0.37903 -0.25174,-0.60665c0,-0.22762 0.09059,-0.44589 0.25174,-0.60665l6.85479,-6.85479c0.33504,-0.33504 0.87825,-0.33504 1.21329,0c0.33504,0.33504 0.33504,0.87825 0,1.21329l-5.39301,5.39129h20.20962c0.47322,0 0.85685,0.38363 0.85685,0.85685" fill="#000000" fill-rule="evenodd" stroke="#000000" stroke-width="1.5"/></g></g></svg>