<svg version="1.1" xmlns="http://www.w3.org/2000/svg" xmlns:xlink="http://www.w3.org/1999/xlink" width="516.51652" height="400.9009" viewBox="0,0,516.51652,400.9009"><g transform="translate(18.25826,20.45045)"><g data-paper-data="{&quot;isPaintingLayer&quot;:true}" fill-rule="nonzero" stroke="none" stroke-linecap="butt" stroke-linejoin="miter" stroke-miterlimit="10" stroke-dasharray="" stroke-dashoffset="0" style="mix-blend-mode: normal"><path d="M-18.25826,380.45045v-400.9009h516.51652v400.9009z" fill="#1b1b1b" stroke-width="0"/><path d="M25.3,196.1c0,-10.24647 0,-26.69669 0,-32.4c0,-3.85506 2.82124,-8.4 6.9,-8.4c29.25753,0 359.90781,0 414.8,0c4.9889,0 7.7,3.36964 7.7,8.2c0,10.82662 0,28.9915 0,33c0,2.46088 -2.56637,8.2 -7.3,8.2c-53.61867,0 -385.30677,0 -415,0c-4.19004,0 -7.1,-5.95688 -7.1,-8.6z" fill="#292929" stroke-width="0"/><text transform="translate(30.9991,94.09452) scale(0.96993,0.96993)" font-size="40" xml:space="preserve" fill="#ffffff" fill-rule="nonzero" stroke="none" stroke-width="1" stroke-linecap="butt" stroke-linejoin="miter" stroke-miterlimit="10" stroke-dasharray="" stroke-dashoffset="0" font-family="&quot;Raleway&quot;, Sans Serif" font-weight="normal" text-anchor="start" style="mix-blend-mode: normal"><tspan x="0" dy="0">Deutsch → Französisch</tspan></text></g></g></svg>