<svg version="1.1" xmlns="http://www.w3.org/2000/svg" xmlns:xlink="http://www.w3.org/1999/xlink" width="239.16064" height="87.33333" viewBox="0,0,239.16064,87.33333"><g transform="translate(-120.41968,-136.33334)"><g data-paper-data="{&quot;isPaintingLayer&quot;:true}" stroke="none" stroke-linecap="butt" stroke-linejoin="miter" stroke-miterlimit="10" stroke-dasharray="" stroke-dashoffset="0" style="mix-blend-mode: normal"><path d="M120.41968,215.54167c0,-18.03075 0,-60.59869 0,-70.75c0,-4.24784 3.4012,-8.45833 7.78865,-8.45833c21.10389,0 185.16201,0 223.41667,0c5.09224,0 7.95532,4.16333 7.95532,8.375c0,10.06108 0,52.26007 0,70.5c0,3.77611 -3.44138,8.45833 -7.87198,8.45833c-21.2242,0 -185.57749,0 -223.5,0c-4.98797,0 -7.78865,-3.11548 -7.78865,-8.125z" fill-opacity="0.50196" fill="#543e34" fill-rule="nonzero" stroke-width="0"/><text transform="translate(156.47551,191.24592) scale(0.93716,0.93716)" font-size="40" xml:space="preserve" fill-opacity="0.50196" fill="#000000" fill-rule="nonzero" stroke="none" stroke-width="1" stroke-linecap="butt" stroke-linejoin="miter" stroke-miterlimit="10" stroke-dasharray="" stroke-dashoffset="0" font-family="&quot;Raleway&quot;, Sans Serif" font-weight="normal" text-anchor="start" style="mix-blend-mode: normal"><tspan x="0" dy="0">Deadshot</tspan></text><path d="M223.58993,169.05996c0,-9.06303 7.34704,-16.41008 16.41007,-16.41008c9.06303,0 16.41007,7.34705 16.41007,16.41008h2.73501c3.02101,0 5.47003,2.44901 5.47003,5.47002v27.35011c0,3.02101 -2.44902,5.47003 -5.47003,5.47003h-38.29016c-3.02101,0 -5.47002,-2.44902 -5.47002,-5.47003v-27.35011c0,-3.02101 2.44902,-5.47002 5.47002,-5.47002zM240,158.11991c6.04202,0 10.94004,4.89802 10.94004,10.94004h-21.88009c0,-6.04202 4.89802,-10.94004 10.94004,-10.94004zM245.47003,185.47003c-0.00005,1.9542 -1.04263,3.75994 -2.73502,4.73704v3.46799c0,1.5105 -1.2245,2.73502 -2.73501,2.73502c-1.5105,0 -2.73501,-1.22451 -2.73501,-2.73502v-3.46799c-2.14392,-1.23794 -3.18915,-3.76149 -2.54839,-6.15281c0.64076,-2.39131 2.80773,-4.05415 5.2834,-4.05426c3.02101,0 5.47002,2.44902 5.47002,5.47002z" fill="#ffe44d" fill-rule="evenodd" stroke-width="1"/></g></g></svg>