<svg version="1.1" xmlns="http://www.w3.org/2000/svg" xmlns:xlink="http://www.w3.org/1999/xlink" width="450" height="43" viewBox="0,0,450,43"><g transform="translate(-15,-158.5)"><g data-paper-data="{&quot;isPaintingLayer&quot;:true}" fill-rule="nonzero" stroke-miterlimit="10" stroke-dasharray="" stroke-dashoffset="0" style="mix-blend-mode: normal"><path d="M15,192.41667c0,-8.79261 0,-21.46182 0,-26.16667c0,-3.51739 3.5238,-7.75 8.5,-7.75c25.21338,0 376.51202,0 433.66667,0c3.62459,0 7.83333,3.49442 7.83333,8.25c0,9.2998 0,23.42251 0,25.66667c0,3.99046 -2.93702,9.08333 -8.33333,9.08333c-58.02158,0 -400.35475,0 -433.16667,0c-4.9762,0 -8.5,-3.85678 -8.5,-9.08333z" fill="#66cc70" stroke="none" stroke-width="0" stroke-linecap="butt" stroke-linejoin="miter"/><text transform="translate(47.28284,178.4135) scale(0.44412,0.44412)" font-size="40" xml:space="preserve" fill="#ffffff" fill-rule="nonzero" stroke="none" stroke-width="1" stroke-linecap="butt" stroke-linejoin="miter" stroke-miterlimit="10" stroke-dasharray="" stroke-dashoffset="0" font-family="Sans Serif" font-weight="normal" text-anchor="start" style="mix-blend-mode: normal"><tspan x="0" dy="0">Herzlichen Glückwunsch!</tspan></text><text transform="translate(47.78284,194.03933) scale(0.31765,0.31765)" font-size="40" xml:space="preserve" fill="#ffffff" fill-rule="nonzero" stroke="none" stroke-width="1" stroke-linecap="butt" stroke-linejoin="miter" stroke-miterlimit="10" stroke-dasharray="" stroke-dashoffset="0" font-family="&quot;Raleway&quot;, Sans Serif" font-weight="normal" text-anchor="start" style="mix-blend-mode: normal"><tspan x="0" dy="0">Du bist nun ein</tspan></text><g fill="none" stroke="#ffffff" stroke-width="2.5" stroke-linecap="round" stroke-linejoin="round"><path d="M31.91667,180.16666c-4.45509,0 -8.06666,-3.61157 -8.06666,-8.06666c0,-4.45509 3.61156,-8.06666 8.06666,-8.06666c4.45509,0 8.06666,3.61157 8.06666,8.06666c0,4.45509 -3.61157,8.06666 -8.06666,8.06666z"/><path d="M31.91667,172.1v3.22667"/><path d="M31.9086,168.87334h0.00807"/></g><text transform="translate(191.46617,194.48933) scale(0.31765,0.31765)" font-size="40" xml:space="preserve" fill="#ffffff" fill-rule="nonzero" stroke="none" stroke-width="1" stroke-linecap="butt" stroke-linejoin="miter" stroke-miterlimit="10" stroke-dasharray="" stroke-dashoffset="0" font-family="&quot;Raleway&quot;, Sans Serif" font-weight="normal" text-anchor="start" style="mix-blend-mode: normal"><tspan x="0" dy="0">-Nutzer!</tspan></text><text transform="translate(137.78284,194.28933) scale(0.31765,0.31765)" font-size="40" xml:space="preserve" fill="#ffe44d" fill-rule="nonzero" stroke="none" stroke-width="1" stroke-linecap="butt" stroke-linejoin="miter" stroke-miterlimit="10" stroke-dasharray="" stroke-dashoffset="0" font-family="&quot;Raleway&quot;, Sans Serif" font-weight="normal" text-anchor="start" style="mix-blend-mode: normal"><tspan x="0" dy="0">Premium</tspan></text></g></g></svg>