<svg version="1.1" xmlns="http://www.w3.org/2000/svg" xmlns:xlink="http://www.w3.org/1999/xlink" width="600.23046" height="434.18393" viewBox="0,0,600.23046,434.18393"><defs><linearGradient x1="240" y1="221.1403" x2="240" y2="278.85972" gradientUnits="userSpaceOnUse" id="color-1"><stop offset="0" stop-color="#9f6c58"/><stop offset="1" stop-color="#6d4e40"/></linearGradient></defs><g transform="translate(101.9722,53.73348)"><g data-paper-data="{&quot;isPaintingLayer&quot;:true}" fill-rule="nonzero" stroke-miterlimit="10" stroke-dasharray="" stroke-dashoffset="0" style="mix-blend-mode: normal"><path d="M-18.25826,380.45045v-400.9009h516.51652v400.9009z" fill-opacity="0.90196" fill="#292929" stroke="none" stroke-width="0" stroke-linecap="butt" stroke-linejoin="miter"/><path d="M240,24.44585l23.62268,35.43403l29.52836,-23.62268l-11.81134,59.0567h-82.67939l-11.81134,-59.0567l29.52836,23.62268z" fill="#e6c300" stroke="#e6cd45" stroke-width="10" stroke-linecap="round" stroke-linejoin="round"/><text transform="translate(180.07435,139.19216) scale(0.68268,0.68268)" font-size="40" xml:space="preserve" fill="#ffffff" fill-rule="nonzero" stroke="none" stroke-width="1" stroke-linecap="butt" stroke-linejoin="miter" stroke-miterlimit="10" stroke-dasharray="" stroke-dashoffset="0" font-family="Sans Serif" font-weight="normal" text-anchor="start" style="mix-blend-mode: normal"><tspan x="0" dy="0">Premium</tspan></text><text transform="translate(12.70759,-53.48348) scale(0.5,0.5)" font-size="40" xml:space="preserve" fill="#ffffff" fill-rule="nonzero" stroke="none" stroke-width="1" stroke-linecap="butt" stroke-linejoin="miter" stroke-miterlimit="10" stroke-dasharray="" stroke-dashoffset="0" font-family="Sans Serif" font-weight="normal" text-anchor="start" style="mix-blend-mode: normal"><tspan x="0" dy="0"> </tspan></text><text transform="translate(138.32236,175.49868) scale(0.37511,0.37511)" font-size="40" xml:space="preserve" fill="#ffffff" fill-rule="nonzero" stroke-opacity="0" stroke="#000000" stroke-width="0" stroke-linecap="butt" stroke-linejoin="miter" stroke-miterlimit="10" stroke-dasharray="" stroke-dashoffset="0" font-family="&quot;Raleway&quot;, Sans Serif" font-weight="normal" text-anchor="start" style="mix-blend-mode: normal"><tspan x="0" dy="0">✓ Schalte alle Features frei</tspan><tspan x="0" dy="48px">✓ Unterstütze den Entwickler</tspan></text><path d="M107.9751,270.9c0,-12.30092 0,-35.22027 0,-42c0,-3.71072 3.43991,-7.75971 7.94158,-7.75971c18.01183,0 206.38234,0 248,0c5.19937,0 8.10823,3.27207 8.10823,8.15971c0,12.89373 0,37.03056 0,42c0,3.63042 -2.90845,7.55972 -8.10823,7.55972c-41.09486,0 -225.30714,0 -248,0c-4.50168,0 -7.94158,-3.17737 -7.94158,-7.95972z" fill="#292929" stroke="url(#color-1)" stroke-width="2.5" stroke-linecap="butt" stroke-linejoin="miter"/><text transform="translate(182.93388,254.50132) scale(0.37511,0.37511)" font-size="40" xml:space="preserve" fill="#ffffff" fill-rule="nonzero" stroke="none" stroke-width="1" stroke-linecap="butt" stroke-linejoin="miter" stroke-miterlimit="10" stroke-dasharray="" stroke-dashoffset="0" font-family="&quot;Raleway&quot;, Sans Serif" font-weight="normal" text-anchor="start" style="mix-blend-mode: normal"><tspan x="0" dy="0">CHF 1.00/Monat</tspan></text><g><path d="M-101.9722,48.97035c0,-6.58002 0,-22.11449 0,-25.81905c0,-1.55018 1.24121,-3.08673 2.84234,-3.08673c7.70152,0 67.57182,0 81.53222,0c1.85832,0 2.90317,1.51934 2.90317,3.05632c0,3.67163 0,19.07144 0,25.72781c0,1.37803 -1.25588,3.08673 -2.87275,3.08673c-7.74542,0 -67.72344,0 -81.56264,0c-1.82028,0 -2.84234,-1.13694 -2.84234,-2.96508z" fill="#292929" stroke="none" stroke-width="0" stroke-linecap="butt" stroke-linejoin="miter"/><text transform="translate(-75.37593,39.55725) scale(0.29644,0.29644)" font-size="40" xml:space="preserve" fill="#ffd900" fill-rule="nonzero" stroke="none" stroke-width="1" stroke-linecap="butt" stroke-linejoin="miter" stroke-miterlimit="10" stroke-dasharray="" stroke-dashoffset="0" font-family="&quot;Raleway&quot;, Sans Serif" font-weight="normal" text-anchor="start" style="mix-blend-mode: normal"><tspan x="0" dy="0">Premium</tspan></text><path d="M-85.10644,29.49524l1.82534,3.69794l4.08191,0.59663l-2.95362,2.87683l0.69705,4.06418l-3.65067,-1.91985l-3.65068,1.91985l0.69706,-4.06418l-2.95362,-2.87683l4.08191,-0.59663z" fill="#ffd900" stroke="#ffe44d" stroke-width="2" stroke-linecap="round" stroke-linejoin="round"/></g></g></g></svg>