<svg version="1.1" xmlns="http://www.w3.org/2000/svg" xmlns:xlink="http://www.w3.org/1999/xlink" width="266.54981" height="60.21943" viewBox="0,0,266.54981,60.21943"><defs><linearGradient x1="240" y1="290.25741" x2="240" y2="347.97684" gradientUnits="userSpaceOnUse" id="color-1"><stop offset="0" stop-color="#9f6c58"/><stop offset="1" stop-color="#6d4e40"/></linearGradient><linearGradient x1="240" y1="290.25741" x2="240" y2="347.97684" gradientUnits="userSpaceOnUse" id="color-2"><stop offset="0" stop-color="#9f6c58"/><stop offset="1" stop-color="#6d4e40"/></linearGradient></defs><g transform="translate(-106.72509,-289.00741)"><g data-paper-data="{&quot;isPaintingLayer&quot;:true}" fill-rule="nonzero" stroke-linecap="butt" stroke-linejoin="miter" stroke-miterlimit="10" stroke-dasharray="" stroke-dashoffset="0" style="mix-blend-mode: normal"><path d="M107.9751,339.70206c0,-12.1219 0,-34.01144 0,-40.86548c0,-4.03393 5.11218,-8.57918 8.49674,-8.57918c23.35174,0 207.24257,0 247.82271,0c5.0789,0 7.73036,3.12135 7.73036,7.83139c0,12.22567 0,35.15501 0,41.98424c0,3.76823 -2.83761,7.9038 -7.91584,7.9038c-40.58121,0 -224.24692,0 -246.33881,0c-3.68543,0 -9.79516,-3.32213 -9.79516,-8.27478z" fill="url(#color-1)" stroke="url(#color-2)" stroke-width="2.5"/><text transform="translate(187.59149,323.61844) scale(0.37511,0.37511)" font-size="40" xml:space="preserve" fill="#ffffff" fill-rule="nonzero" stroke="none" stroke-width="1" stroke-linecap="butt" stroke-linejoin="miter" stroke-miterlimit="10" stroke-dasharray="" stroke-dashoffset="0" font-family="&quot;Raleway&quot;, Sans Serif" font-weight="normal" text-anchor="start" style="mix-blend-mode: normal"><tspan x="0" dy="0">Jetzt upgraden</tspan></text></g></g></svg>